<?xml version="1.0" encoding="utf-8"?>
<!-- Generator: Adobe Illustrator 19.2.0, SVG Export Plug-In . SVG Version: 6.00 Build 0)  -->
<svg version="1.1" id="Layer_1" xmlns="http://www.w3.org/2000/svg" xmlns:xlink="http://www.w3.org/1999/xlink" x="0px" y="0px"
	 viewBox="0 0 960 960" style="enable-background:new 0 0 960 960;" xml:space="preserve">
<style type="text/css">
	.st0{fill:#FFED6C;}
	.st1{fill:#FFD345;}
	.st2{fill:#FBB03B;}
	.st3{font-family:'MyriadPro-Bold';}
	.st4{font-size:338.1696px;}
</style>
<g>
	<g>
		<polygon class="st0" points="171.7,480 220.9,420.8 202.2,346.2 272.2,314.3 287.8,239 364.7,240.5 411.4,179.4 480,214.3 
			548.6,179.4 595.3,240.5 672.2,239 687.8,314.3 757.8,346.2 739.1,420.8 788.3,480 739.1,539.2 757.8,613.8 687.8,645.7 
			672.2,721 595.3,719.5 548.6,780.6 480,745.7 411.4,780.6 364.7,719.5 287.8,721 272.2,645.7 202.2,613.8 220.9,539.2 		"/>
	</g>
	<circle class="st1" cx="480" cy="480" r="215.7"/>
	<path class="st2" d="M285.6,501.3c0-119.1,96.6-215.7,215.7-215.7c54.1,0,103.6,20,141.5,53c-39.5-45.5-97.8-74.2-162.7-74.2
		c-119.1,0-215.7,96.6-215.7,215.7c0,65,28.8,123.2,74.2,162.7C305.6,604.9,285.6,555.4,285.6,501.3z"/>
	<text transform="matrix(1 0 0 1 324.3923 597.1792)" class="st0 st3 st4">%</text>
</g>
</svg>
